<svg width="1024" height="1024" viewBox="0 0 1024 1024" fill="none" xmlns="http://www.w3.org/2000/svg">
<rect width="1024" height="1024" fill="black"/>
<path d="M812.433 754.65C812.433 751.896 812.055 749.871 811.299 748.575C810.543 747.225 809.031 746.55 806.763 746.55H805.143V744.93H812.433C814.431 744.93 815.943 745.2 816.969 745.74C818.049 746.28 818.832 747.09 819.318 748.17H819.723C820.857 747.036 822.315 746.091 824.097 745.335C825.933 744.525 827.985 744.12 830.253 744.12C832.521 744.12 834.465 744.552 836.085 745.416C837.705 746.226 839.001 747.684 839.973 749.79C841.377 748.008 843.159 746.631 845.319 745.659C847.533 744.633 849.801 744.12 852.123 744.12C855.579 744.12 858.333 745.2 860.385 747.36C862.437 749.52 863.463 753.3 863.463 758.7V783H856.173V758.7C856.173 754.812 855.633 752.031 854.553 750.357C853.473 748.629 851.853 747.765 849.693 747.765C848.181 747.765 846.588 748.332 844.914 749.466C843.24 750.546 841.998 751.734 841.188 753.03C841.458 753.84 841.593 755.73 841.593 758.7V783H834.303V758.7C834.303 754.812 833.763 752.031 832.683 750.357C831.603 748.629 829.983 747.765 827.823 747.765C824.961 747.765 822.261 749.196 819.723 752.058V783H812.433V754.65Z" fill="white"/>
<path d="M795.108 783.81C792.084 783.81 789.708 782.946 787.98 781.218C786.252 779.49 785.388 776.844 785.388 773.28V748.17H779.718V744.93H785.388V737.64L789.438 732.78H792.678V744.93H802.398V748.17H792.678V773.28C792.678 778.14 794.568 780.57 798.348 780.57C799.644 780.57 800.724 780.435 801.588 780.165C802.506 779.895 803.451 779.49 804.423 778.95L805.233 780.57C803.991 781.488 802.614 782.271 801.102 782.919C799.59 783.513 797.592 783.81 795.108 783.81Z" fill="white"/>
<path d="M625.194 823.46C632.969 823.46 639.315 821.635 644.234 817.986C649.311 814.495 653.675 807.99 657.324 798.47L662.084 785.38L624.004 692.56C619.561 681.136 610.835 674.789 597.824 673.52V668.76H618.054C631.858 668.76 641.378 675.107 646.614 687.8L673.746 753.726L703.734 671.14H715.634L669.224 798.47C664.623 811.005 659.545 819.493 653.992 823.936C648.439 828.379 641.219 830.6 632.334 830.6H625.194V823.46Z" fill="white"/>
<path d="M530.671 785.38C518.771 785.38 509.013 782.207 501.397 775.86C493.94 769.513 490.211 758.407 490.211 742.54V699.7C490.211 691.608 489.1 685.658 486.879 681.85C484.658 677.883 480.215 675.9 473.551 675.9H471.171V671.14H490.211C496.082 671.14 500.445 671.933 503.301 673.52C506.316 674.948 508.458 677.645 509.727 681.612C510.996 685.579 511.631 691.608 511.631 699.7V742.54C511.631 753.647 514.09 761.818 519.009 767.054C524.086 772.131 530.354 774.67 537.811 774.67C546.22 774.67 554.154 770.465 561.611 762.056V671.14H583.031V783H571.131L562.801 773.48H561.611C558.279 776.812 553.916 779.668 548.521 782.048C543.285 784.269 537.335 785.38 530.671 785.38Z" fill="white"/>
<path d="M392.934 787.76C377.385 787.76 363.422 783.952 351.046 776.336C338.829 768.72 329.229 758.407 322.248 745.396C315.425 732.227 312.014 717.788 312.014 702.08C312.014 687.007 315.029 673.361 321.058 661.144C327.087 648.768 335.655 639.01 346.762 631.87C358.027 624.73 371.038 621.16 385.794 621.16C399.439 621.16 411.181 622.985 421.018 626.634C431.014 630.125 438.313 634.647 442.914 640.2C445.453 643.373 447.039 647.578 447.674 652.814C448.467 658.05 448.864 664.555 448.864 672.33H444.104C441.089 658.367 435.377 647.975 426.968 641.152C418.559 634.171 407.214 630.68 392.934 630.68C380.082 630.68 369.372 634.091 360.804 640.914C352.236 647.578 345.889 656.305 341.764 667.094C337.797 677.883 335.814 689.545 335.814 702.08C335.814 728.895 341.05 748.331 351.522 760.39C361.994 772.29 375.798 778.24 392.934 778.24C401.026 778.24 407.928 777.526 413.64 776.098C419.352 774.67 424.747 772.607 429.824 769.91V728.498C429.824 723.103 430.697 718.423 432.442 714.456C434.187 710.489 437.916 707.237 443.628 704.698C449.499 702.001 457.987 700.652 469.094 700.652V705.412C461.954 705.412 457.194 707.237 454.814 710.886C452.434 714.535 451.244 720.247 451.244 728.022V772.766C442.676 778.002 433.711 781.81 424.35 784.19C414.989 786.57 404.517 787.76 392.934 787.76Z" fill="white"/>
<path d="M919.915 547.38C911.03 547.38 904.049 544.841 898.971 539.764C893.894 534.687 891.355 526.912 891.355 516.44V442.66H874.695V433.14H891.355V411.72L903.255 397.44H912.775V433.14H941.335V442.66H912.775V516.44C912.775 530.72 918.329 537.86 929.435 537.86C933.243 537.86 936.417 537.463 938.955 536.67C941.653 535.877 944.429 534.687 947.285 533.1L949.665 537.86C946.016 540.557 941.97 542.858 937.527 544.762C933.085 546.507 927.214 547.38 919.915 547.38Z" fill="white"/>
<path d="M800.164 547.38C788.264 547.38 778.506 544.207 770.89 537.86C763.433 531.513 759.704 520.407 759.704 504.54V461.7C759.704 453.608 758.593 447.658 756.372 443.85C754.151 439.883 749.708 437.9 743.044 437.9H740.664V433.14H759.704C765.575 433.14 769.938 433.933 772.794 435.52C775.809 436.948 777.951 439.645 779.22 443.612C780.489 447.579 781.124 453.608 781.124 461.7V504.54C781.124 515.647 783.583 523.818 788.502 529.054C793.579 534.131 799.847 536.67 807.304 536.67C815.713 536.67 823.647 532.465 831.104 524.056V433.14H852.524V545H840.624L832.294 535.48H831.104C827.772 538.812 823.409 541.668 818.014 544.048C812.778 546.269 806.828 547.38 800.164 547.38Z" fill="white"/>
<path d="M679.195 547.38C668.406 547.38 659.044 544.841 651.111 539.764C643.178 534.528 637.148 527.467 633.023 518.582C628.898 509.697 626.835 499.859 626.835 489.07C626.835 478.281 628.898 468.443 633.023 459.558C637.148 450.673 643.178 443.691 651.111 438.614C659.044 433.378 668.406 430.76 679.195 430.76C689.984 430.76 699.346 433.378 707.279 438.614C715.212 443.691 721.242 450.673 725.367 459.558C729.492 468.443 731.555 478.281 731.555 489.07C731.555 499.859 729.492 509.697 725.367 518.582C721.242 527.467 715.212 534.528 707.279 539.764C699.346 544.841 689.984 547.38 679.195 547.38ZM679.195 537.86C685.066 537.86 690.222 535.718 694.665 531.434C699.266 527.15 702.757 521.279 705.137 513.822C707.676 506.365 708.945 498.114 708.945 489.07C708.945 480.026 707.676 471.775 705.137 464.318C702.757 456.861 699.266 450.99 694.665 446.706C690.222 442.422 685.066 440.28 679.195 440.28C673.324 440.28 668.088 442.422 663.487 446.706C659.044 450.99 655.554 456.861 653.015 464.318C650.635 471.775 649.445 480.026 649.445 489.07C649.445 498.114 650.635 506.365 653.015 513.822C655.554 521.279 659.044 527.15 663.487 531.434C668.088 535.718 673.324 537.86 679.195 537.86Z" fill="white"/>
<path d="M610.837 547.38C597.35 547.38 585.847 541.033 576.327 528.34L547.767 490.26V545H526.347V416.48C526.347 408.388 525.236 402.438 523.015 398.63C520.794 394.663 516.351 392.68 509.687 392.68H504.927V387.92H526.347C532.218 387.92 536.581 388.713 539.437 390.3C542.452 391.728 544.594 394.425 545.863 398.392C547.132 402.359 547.767 408.388 547.767 416.48V486.69L577.517 448.61C581.642 443.533 586.006 439.725 590.607 437.186C595.208 434.489 601.158 433.14 608.457 433.14H615.597V439.09C611.313 439.09 607.188 439.963 603.221 441.708C599.254 443.453 595.843 446.151 592.987 449.8L566.807 483.12L596.557 521.2C601.158 527.229 605.442 531.751 609.409 534.766C613.534 537.781 617.977 539.685 622.737 540.478V545C619.246 546.587 615.28 547.38 610.837 547.38Z" fill="white"/>
<path d="M457.232 547.38C445.808 547.38 436.129 544.841 428.196 539.764C420.421 534.528 414.551 527.547 410.584 518.82C406.776 509.935 404.872 500.018 404.872 489.07C404.872 478.122 406.776 468.285 410.584 459.558C414.551 450.673 420.421 443.691 428.196 438.614C436.129 433.378 445.808 430.76 457.232 430.76C474.685 430.76 486.189 433.537 491.742 439.09C494.439 441.787 496.105 445.119 496.74 449.086C497.375 452.894 497.692 459.875 497.692 470.03H492.932C492.297 460.193 489.203 452.815 483.65 447.896C478.097 442.819 470.877 440.28 461.992 440.28C450.568 440.28 441.921 444.802 436.05 453.846C430.338 462.89 427.482 474.631 427.482 489.07C427.482 503.509 430.338 515.25 436.05 524.294C441.921 533.338 450.568 537.86 461.992 537.86C470.084 537.86 476.748 536.353 481.984 533.338C487.22 530.165 492.059 525.325 496.502 518.82L501.262 522.39C496.026 531.275 489.838 537.701 482.698 541.668C475.558 545.476 467.069 547.38 457.232 547.38Z" fill="white"/>
<path d="M323.37 547.38C318.293 547.38 313.136 546.349 307.9 544.286C302.664 542.065 298.142 538.495 294.334 533.576C290.685 528.657 288.86 522.152 288.86 514.06C288.86 502.001 294.413 493.433 305.52 488.356C316.785 483.279 331.462 480.74 349.55 480.74H356.69C356.69 465.191 354.548 454.56 350.264 448.848C345.98 443.136 339.792 440.28 331.7 440.28C324.56 440.28 318.848 441.787 314.564 444.802C310.28 447.817 307.265 453.053 305.52 460.51H294.81C294.81 455.115 295.127 450.911 295.762 447.896C296.397 444.723 298.063 441.787 300.76 439.09C303.616 436.234 308.297 434.171 314.802 432.902C321.466 431.474 328.685 430.76 336.46 430.76C349.312 430.76 359.467 434.251 366.924 441.232C374.381 448.055 378.11 461.224 378.11 480.74V545H366.21L357.88 534.29H356.69C353.834 537.939 349.629 541.033 344.076 543.572C338.523 546.111 331.621 547.38 323.37 547.38ZM334.08 536.67C339.316 536.67 343.679 535.401 347.17 532.862C350.661 530.323 353.834 526.833 356.69 522.39V490.26H349.55C337.809 490.26 328.527 492.481 321.704 496.924C314.881 501.208 311.47 506.92 311.47 514.06C311.47 521.359 313.612 526.991 317.896 530.958C322.339 534.766 327.733 536.67 334.08 536.67Z" fill="white"/>
<path d="M240.025 416.48C240.025 408.388 238.915 402.438 236.693 398.63C234.472 394.663 230.029 392.68 223.365 392.68H218.605V387.92H240.025C245.896 387.92 250.26 388.713 253.116 390.3C256.13 391.728 258.272 394.425 259.542 398.392C260.811 402.359 261.445 408.388 261.445 416.48V545H240.025V416.48Z" fill="white"/>
<path d="M99.1128 416.48C99.1128 408.388 98.0021 402.438 95.7808 398.63C93.5594 394.663 89.1168 392.68 82.4528 392.68H77.6928V387.92H139.573C156.867 387.92 171.861 390.776 184.555 396.488C197.407 402.2 203.833 413.227 203.833 429.57C203.833 437.027 201.294 443.771 196.217 449.8C191.139 455.829 183.365 460.589 172.893 464.08C187.49 466.46 197.645 470.823 203.357 477.17C209.227 483.358 212.163 491.688 212.163 502.16C212.163 518.185 205.816 529.371 193.123 535.718C180.588 541.906 165.118 545 146.713 545H99.1128V416.48ZM143.143 460.51C149.648 460.51 155.757 459.32 161.469 456.94C167.339 454.401 172.099 450.752 175.749 445.992C179.398 441.073 181.223 435.203 181.223 428.38C181.223 421.24 179.081 415.29 174.797 410.53C170.513 405.611 165.039 402.041 158.375 399.82C151.869 397.44 145.205 396.25 138.383 396.25C132.829 396.25 126.879 397.043 120.533 398.63V460.51H143.143ZM143.143 536.67C157.581 536.67 168.688 533.814 176.463 528.102C184.396 522.39 188.363 514.139 188.363 503.35C188.363 492.561 184.475 484.31 176.701 478.598C169.085 472.886 157.899 470.03 143.143 470.03H120.533V533.338C128.149 535.559 135.685 536.67 143.143 536.67Z" fill="white"/>
<path d="M608.799 308.66C601.273 308.66 594.91 306.889 589.709 303.348C584.507 299.696 580.579 294.827 577.923 288.74C575.267 282.543 573.939 275.626 573.939 267.99C573.939 260.465 575.267 253.603 577.923 247.406C580.579 241.209 584.397 236.339 589.377 232.798C594.467 229.146 600.388 227.32 607.139 227.32C618.316 227.32 626.616 230.474 632.039 236.782C637.572 242.979 640.339 251.999 640.339 263.84L640.007 270.48H589.709C589.709 279.776 591.701 287.357 595.685 293.222C599.669 299.087 605.147 302.02 612.119 302.02C617.32 302.02 621.691 300.913 625.233 298.7C628.885 296.487 632.26 293.167 635.359 288.74L638.679 291.23C635.027 297.317 630.766 301.743 625.897 304.51C621.027 307.277 615.328 308.66 608.799 308.66ZM624.569 263.84C624.569 254.101 623.13 246.687 620.253 241.596C617.375 236.505 613.004 233.96 607.139 233.96C603.819 233.96 600.831 235.288 598.175 237.944C595.519 240.489 593.416 244.031 591.867 248.568C590.428 253.105 589.709 258.196 589.709 263.84H624.569Z" fill="white"/>
<path d="M490.557 217.36C490.557 211.716 489.783 207.566 488.233 204.91C486.684 202.143 483.585 200.76 478.937 200.76H475.617V197.44H490.557C494.652 197.44 497.695 197.993 499.687 199.1C501.79 200.096 503.284 201.977 504.169 204.744C505.055 207.511 505.497 211.716 505.497 217.36V235.62C507.821 233.296 510.809 231.359 514.461 229.81C518.224 228.15 522.429 227.32 527.077 227.32C535.377 227.32 542.128 229.533 547.329 233.96C552.641 238.387 555.297 246.133 555.297 257.2V307H540.357V257.2C540.357 249.453 538.587 243.809 535.045 240.268C531.615 236.616 527.299 234.79 522.097 234.79C516.232 234.79 510.699 237.723 505.497 243.588V307H490.557V217.36Z" fill="white"/>
<path d="M404.033 204.08C390.199 204.08 383.283 210.443 383.283 223.17H379.963V210.72C379.963 201.867 384.666 197.44 394.073 197.44H471.263V204.08H433.913V307H418.973V204.08H404.033Z" fill="white"/>
</svg>
