<?xml version="1.0" encoding="UTF-8"?>
<svg xmlns="http://www.w3.org/2000/svg" version="1.1" viewBox="0 0 418.57 417.14">
  <!-- Generator: Adobe Illustrator 29.4.0, SVG Export Plug-In . SVG Version: 2.1.0 Build 152)  -->
  <defs>
    <style>
      .st0, .st1, .st2, .st3, .st4, .st5 {
        fill: #fff;
      }

      .st0, .st5 {
        stroke: #fff;
      }

      .st0, .st5, .st6 {
        stroke-miterlimit: 10;
      }

      .st0, .st6 {
        stroke-width: 3px;
      }

      .st1 {
        font-size: 60px;
      }

      .st1, .st2, .st3, .st4 {
        font-family: MyriadPro-Regular, 'Myriad Pro';
      }

      .st2 {
        font-size: 90px;
      }

      .st3 {
        font-size: 95px;
      }

      .st4 {
        font-size: 21px;
      }

      .st6 {
        stroke: #000;
      }

      .st7 {
        display: none;
      }
    </style>
  </defs>
  <g id="Layer_8" class="st7">
    <text class="st1" transform="translate(162.52 116.57)"><tspan x="0" y="0">The</tspan></text>
    <text class="st3" transform="translate(37.55 218.47)"><tspan x="0" y="0">Blackout</tspan></text>
    <text class="st2" transform="translate(133.66 316.73)"><tspan x="0" y="0">Guy</tspan></text>
    <text class="st4" transform="translate(289.57 314.28)"><tspan x="0" y="0">tm</tspan></text>
  </g>
  <g id="Layer_4">
    <rect class="st6" x="-3.36" y="-10.03" width="426.69" height="426.69"/>
  </g>
  <g id="Layer_1">
    <circle cx="210.88" cy="206.94" r="203.57"/>
  </g>
  <g id="Myriad_Pro">
    <path class="st0" d="M172.91,79.09h-13.52v-4.88h32.91v4.88h-13.59v39.57h-5.8v-39.57Z"/>
    <path class="st0" d="M197.69,74.21h5.8v18.64h.13c.92-1.65,2.37-3.1,4.15-4.09,1.72-.99,3.76-1.65,5.94-1.65,4.29,0,11.14,2.64,11.14,13.65v18.99h-5.8v-18.33c0-5.14-1.91-9.5-7.39-9.5-3.76,0-6.73,2.64-7.78,5.8-.33.79-.4,1.65-.4,2.77v19.26h-5.8v-45.55Z"/>
    <path class="st0" d="M237.52,104.85c.13,7.85,5.14,11.08,10.95,11.08,4.15,0,6.66-.73,8.84-1.65l.99,4.15c-2.04.92-5.54,1.98-10.62,1.98-9.83,0-15.7-6.46-15.7-16.09s5.67-17.21,14.97-17.21c10.42,0,13.19,9.17,13.19,15.04,0,1.19-.13,2.11-.2,2.7h-22.42ZM254.53,100.69c.07-3.69-1.52-9.43-8.05-9.43-5.87,0-8.44,5.41-8.9,9.43h16.95Z"/>
    <g>
      <path class="st0" d="M27.84,152.43c3.97-.84,10.23-1.46,16.6-1.46,9.08,0,14.93,1.57,19.32,5.12,3.65,2.71,5.85,6.89,5.85,12.43,0,6.79-4.49,12.74-11.9,15.45v.21c6.68,1.67,14.51,7.21,14.51,17.65,0,6.06-2.4,10.65-5.95,14.1-4.91,4.49-12.84,6.58-24.33,6.58-6.27,0-11.07-.42-14.1-.84v-69.23ZM36.92,181.25h8.25c9.61,0,15.25-5.01,15.25-11.8,0-8.25-6.26-11.49-15.45-11.49-4.18,0-6.58.31-8.04.63v22.66ZM36.92,214.97c1.77.31,4.39.42,7.62.42,9.4,0,18.06-3.45,18.06-13.68,0-9.61-8.25-13.57-18.17-13.57h-7.52v26.84Z"/>
      <path class="st0" d="M84.12,147.73h9.19v74.14h-9.19v-74.14Z"/>
      <path class="st0" d="M136.75,221.87l-.73-6.37h-.31c-2.82,3.97-8.25,7.52-15.45,7.52-10.23,0-15.45-7.21-15.45-14.51,0-12.22,10.86-18.9,30.39-18.8v-1.04c0-4.18-1.15-11.7-11.49-11.7-4.7,0-9.61,1.46-13.16,3.76l-2.09-6.06c4.18-2.72,10.23-4.49,16.6-4.49,15.45,0,19.21,10.55,19.21,20.68v18.9c0,4.39.21,8.67.84,12.11h-8.35ZM135.39,196.07c-10.02-.21-21.41,1.57-21.41,11.38,0,5.95,3.97,8.77,8.67,8.77,6.58,0,10.76-4.18,12.22-8.46.31-.94.52-1.98.52-2.92v-8.77Z"/>
      <path class="st0" d="M195.12,219.99c-2.4,1.25-7.73,2.92-14.51,2.92-15.25,0-25.17-10.34-25.17-25.79s10.65-26.84,27.15-26.84c5.43,0,10.23,1.36,12.74,2.61l-2.09,7.1c-2.19-1.25-5.64-2.4-10.65-2.4-11.59,0-17.86,8.56-17.86,19.11,0,11.7,7.52,18.9,17.54,18.9,5.22,0,8.67-1.36,11.28-2.51l1.57,6.89Z"/>
      <path class="st0" d="M214.96,194.51h.21c1.25-1.78,3.03-3.97,4.49-5.74l14.83-17.44h11.07l-19.53,20.78,22.24,29.76h-11.17l-17.44-24.23-4.7,5.22v19h-9.08v-74.14h9.08v46.78Z"/>
      <path class="st0" d="M300.58,196.18c0,18.69-12.95,26.84-25.17,26.84-13.68,0-24.23-10.02-24.23-26,0-16.92,11.07-26.84,25.06-26.84s24.33,10.55,24.33,26ZM260.48,196.7c0,11.07,6.37,19.42,15.35,19.42s15.35-8.25,15.35-19.63c0-8.56-4.28-19.42-15.14-19.42s-15.56,10.02-15.56,19.63Z"/>
      <path class="st0" d="M354.46,208.08c0,5.22.11,9.82.42,13.78h-8.14l-.52-8.25h-.21c-2.4,4.07-7.73,9.4-16.71,9.4-7.94,0-17.44-4.39-17.44-22.14v-29.55h9.19v27.98c0,9.61,2.92,16.08,11.28,16.08,6.16,0,10.44-4.28,12.11-8.35.52-1.36.84-3.03.84-4.7v-31.01h9.19v36.76Z"/>
      <path class="st0" d="M380.77,156.81v14.51h13.16v7h-13.16v27.25c0,6.27,1.78,9.82,6.89,9.82,2.4,0,4.18-.31,5.33-.63l.42,6.89c-1.77.73-4.59,1.25-8.14,1.25-4.28,0-7.73-1.36-9.92-3.86-2.61-2.72-3.55-7.21-3.55-13.16v-27.57h-7.83v-7h7.83v-12.11l8.98-2.4Z"/>
    </g>
    <g>
      <path class="st0" d="M178.31,318.11c-3.86,1.38-11.47,3.66-20.48,3.66-10.09,0-18.4-2.57-24.93-8.8-5.74-5.54-9.3-14.44-9.3-24.83.1-19.88,13.75-34.42,36.11-34.42,7.72,0,13.75,1.68,16.62,3.07l-2.08,7.02c-3.56-1.58-8.01-2.87-14.74-2.87-16.22,0-26.81,10.09-26.81,26.81s10.19,26.91,25.72,26.91c5.64,0,9.5-.79,11.48-1.78v-19.88h-13.55v-6.92h21.96v32.05Z"/>
      <path class="st0" d="M231.23,308.02c0,4.95.1,9.3.4,13.06h-7.72l-.49-7.81h-.2c-2.27,3.86-7.32,8.9-15.83,8.9-7.52,0-16.52-4.16-16.52-20.97v-28h8.7v26.51c0,9.1,2.77,15.23,10.68,15.23,5.84,0,9.89-4.06,11.47-7.91.49-1.29.79-2.87.79-4.45v-29.38h8.71v34.82Z"/>
      <path class="st0" d="M248.84,273.2l10.49,28.29c1.09,3.17,2.27,6.92,3.07,9.79h.2c.89-2.87,1.88-6.53,3.07-9.99l9.5-28.09h9.2l-13.06,34.13c-6.23,16.42-10.48,24.83-16.42,29.97-4.25,3.76-8.51,5.24-10.68,5.64l-2.18-7.32c2.18-.69,5.04-2.08,7.62-4.25,2.37-1.88,5.34-5.24,7.32-9.69.4-.89.69-1.58.69-2.08s-.2-1.19-.59-2.28l-17.71-44.12h9.5Z"/>
    </g>
    <g>
      <path class="st5" d="M295.55,304v3.21h2.91v1.55h-2.91v6.02c0,1.38.39,2.17,1.52,2.17.53,0,.92-.07,1.18-.14l.09,1.52c-.39.16-1.02.28-1.8.28-.95,0-1.71-.3-2.19-.85-.58-.6-.79-1.59-.79-2.91v-6.09h-1.73v-1.55h1.73v-2.68l1.99-.53Z"/>
      <path class="st5" d="M300.74,310.23c0-1.15-.02-2.1-.09-3.02h1.78l.09,1.8h.07c.62-1.06,1.66-2.05,3.51-2.05,1.52,0,2.68.92,3.16,2.24h.05c.35-.62.78-1.11,1.25-1.45.67-.51,1.41-.78,2.47-.78,1.48,0,3.67.97,3.67,4.85v6.58h-1.98v-6.32c0-2.15-.78-3.44-2.42-3.44-1.15,0-2.05.85-2.4,1.85-.09.28-.16.65-.16,1.02v6.9h-1.98v-6.69c0-1.78-.78-3.07-2.33-3.07-1.27,0-2.19,1.02-2.52,2.03-.12.3-.16.65-.16.99v6.74h-1.99v-8.15Z"/>
    </g>
  </g>
</svg>